<svg viewBox="0 0 120 32" fill="none" xmlns="http://www.w3.org/2000/svg">
  <!-- Nimiq Hexagon with gradient -->
  <defs>
    <radialGradient id="nimiqGradientDark" cx="0.5" cy="0.5" r="0.6">
      <stop offset="0%" stop-color="#E9B213"/>
      <stop offset="100%" stop-color="#D4A017"/>
    </radialGradient>
  </defs>
  
  <!-- Hexagon shape -->
  <path d="M8 16L12 8H20L24 16L20 24H12L8 16Z" fill="url(#nimiqGradientDark)" rx="2"/>
  
  <!-- NIMIQ Text in white for dark backgrounds -->
  <g fill="white">
    <!-- N -->
    <path d="M36 10V22H38V14.5L42 22H44V10H42V17.5L38 10H36Z"/>
    <!-- I -->
    <path d="M48 10V22H50V10H48Z"/>
    <!-- M -->
    <path d="M54 10V22H56V14L58 20H60L62 14V22H64V10H61L59 17L57 10H54Z"/>
    <!-- I -->
    <path d="M68 10V22H70V10H68Z"/>
    <!-- Q -->
    <path d="M74 16C74 13.8 75.8 12 78 12C80.2 12 82 13.8 82 16C82 18.2 80.2 20 78 20C75.8 20 74 18.2 74 16ZM72 16C72 19.3 74.7 22 78 22C81.3 22 84 19.3 84 16C84 12.7 81.3 10 78 10C74.7 10 72 12.7 72 16Z"/>
    <path d="M80 18L82 20H84L81 17"/>
  </g>
</svg>
